<?xml version="1.0" encoding="UTF-8"?>
<svg width="18px" height="18px" viewBox="0 0 18 18" version="1.1" xmlns="http://www.w3.org/2000/svg" xmlns:xlink="http://www.w3.org/1999/xlink">
    <!-- Generator: Sketch 59.1 (86144) - https://sketch.com -->
    <title>cpu</title>
    <desc>Created with Sketch.</desc>
    <g id="cpu" stroke="none" stroke-width="1" fill="none" fill-rule="evenodd">
        <g id="cpu-32-bit" fill="#000000" fill-rule="nonzero">
            <path d="M12,0 L12,2 L14,2 C15.1045695,2 16,2.8954305 16,4 L16,4 L16,6 L18,6 L18,8 L16,8 L16,10 L18,10 L18,12 L16,12 L16,14 C16,15.1045695 15.1045695,16 14,16 L14,16 L12,16 L12,18 L10,18 L10,16 L8,16 L8,18 L6,18 L6,16 L4,16 C2.8954305,16 2,15.1045695 2,14 L2,14 L2,12 L0,12 L0,10 L2,10 L2,8 L0,8 L0,6 L2,6 L2,4 C2,2.8954305 2.8954305,2 4,2 L4,2 L6,2 L8,0 L8,2 L10,2 L10,0 L12,0 Z M9.5,6 L13,6 C13.5522847,6 14,6.44771525 14,7 L14,8.75 C14,9.30228475 13.5522847,9.75 13,9.75 L11,9.75 L11,10.5 L14,10.5 L14,12 L9.5,12 L9.5,9.25 C9.5,8.69771525 9.94771525,8.25 10.5,8.25 L12.5,8.25 L12.5,7.5 L9.5,7.5" id="Shape"></path>
        </g>
    </g>
</svg>